<?xml version="1.0" encoding="utf-8"?>
<!-- Generator: Adobe Illustrator 26.3.1, SVG Export Plug-In . SVG Version: 6.00 Build 0)  -->
<svg version="1.1" id="Layer_1" xmlns="http://www.w3.org/2000/svg" xmlns:xlink="http://www.w3.org/1999/xlink" x="0px" y="0px"
	 viewBox="0 0 165 55" style="enable-background:new 0 0 165 55;" xml:space="preserve">
<style type="text/css">
	.st0{fill:#801423;}
	.st1{fill:#E5C60B;}
	.st2{fill:#FFFFFF;}
</style>
<g>
	<path class="st0" d="M49.3,11.3l2.6-6.2h0.4l2.7,6.1c0.2,0.5,0.3,0.6,0.9,0.6v0.2h-2.9V12c0.5-0.1,0.9-0.1,0.7-0.6l-0.6-1.3h-2.8
		l-0.5,1.3c-0.2,0.5,0.2,0.5,0.7,0.6v0.2h-2.1V12C49,11.9,49.1,11.8,49.3,11.3z M53,9.7l-1.3-3l-1.2,3H53z"/>
	<path class="st0" d="M56.9,10.6V8.1c0-0.4-0.3-0.5-0.7-0.5V7.4c0.7,0,1.2,0,1.7-0.1v3.3c0,0.6,0.3,1,0.9,1c0.3,0,0.8-0.1,1.3-0.6
		V8.1c0-0.4-0.3-0.5-0.7-0.5V7.4c0.7,0,1.2,0,1.7-0.1v3.9c0,0.4,0.1,0.6,0.7,0.7v0.2h-1.7l0.1-0.9h-0.1c-0.5,0.5-1.1,0.9-1.9,0.9
		C57.2,12.3,56.9,11.5,56.9,10.6z"/>
	<path class="st0" d="M62.6,11.9l0-1h0.4c0.2,0.7,0.6,1.1,1.4,1.1c0.6,0,1-0.3,1-0.8c0-0.6-0.5-0.7-1.2-1c-0.7-0.3-1.5-0.7-1.5-1.5
		c0-0.8,0.7-1.4,1.8-1.4c0.8,0,1.2,0.3,1.4,0.4l0,1h-0.3c-0.2-0.6-0.5-1.1-1.2-1.1c-0.6,0-0.8,0.3-0.8,0.7c0,0.5,0.4,0.7,1,0.9
		c0.7,0.3,1.7,0.6,1.7,1.6c0,0.9-0.8,1.5-2,1.5C63.4,12.3,62.8,12,62.6,11.9z"/>
	<path class="st0" d="M67.6,11.4V7.9h-0.8V7.6c0.7-0.3,1.2-0.7,1.6-1.2h0.3v1.1L70,7.3c0,0.2,0,0.4,0,0.6h-1.3V11
		c0,0.4,0.2,0.6,0.5,0.6c0.3,0,0.7-0.1,0.9-0.2v0.3c-0.4,0.2-1.1,0.5-1.5,0.6C68.1,12.3,67.6,11.9,67.6,11.4z"/>
	<path class="st0" d="M71.4,11.4V8.7c0-0.4-0.1-0.6-0.8-0.7V7.8c0.8-0.1,1.2-0.3,1.7-0.6l0.2,0.2l-0.3,1.3h0.3
		c0.4-0.9,0.9-1.5,1.6-1.5c0.2,0,0.3,0,0.5,0.1v1c-0.2-0.1-0.4-0.1-0.7-0.1c-0.9,0-1.4,0.7-1.4,1.5v1.7c0,0.5,0.3,0.5,0.8,0.6v0.2
		h-2.6V12C71.1,11.9,71.4,11.9,71.4,11.4z"/>
	<path class="st0" d="M78.4,11.4c-0.4,0.4-1.1,0.9-1.9,0.9c-0.8,0-1.3-0.4-1.3-1.2c0-0.9,0.9-1.2,2.1-1.6c0.6-0.2,1-0.3,1.1-0.6V8.8
		c0-0.9-0.4-1.2-1.3-1.2c-0.2,0-0.3,0.1-0.4,0.3c-0.3,0.7-0.5,1-0.8,1c-0.2,0-0.4-0.1-0.4-0.4c0-0.8,1.5-1.3,2.5-1.3
		c1,0,1.5,0.6,1.5,1.7v2.3c0,0.3,0.4,0.4,0.8,0.2v0.3c-0.3,0.3-0.6,0.5-1,0.7C78.8,12.3,78.4,11.9,78.4,11.4z M77.1,11.7
		c0.5,0,1-0.3,1.3-0.7V9.6l-1.1,0.3c-0.8,0.2-1.1,0.6-1.1,1C76.3,11.4,76.6,11.7,77.1,11.7z"/>
	<path class="st0" d="M81.5,11.4V6.2c0-0.4-0.2-0.6-0.8-0.7V5.3c0.7-0.1,1.1-0.3,1.6-0.6l0.2,0.2v6.5c0,0.5,0.4,0.5,0.8,0.6v0.2
		h-2.7V12C81.2,11.9,81.5,11.9,81.5,11.4z"/>
	<path class="st0" d="M84.7,11.4V8.7c0-0.4-0.1-0.6-0.7-0.7V7.8c0.6-0.1,1.1-0.3,1.5-0.6l0.2,0.2v4c0,0.5,0.3,0.5,0.7,0.6v0.2h-2.5
		V12C84.4,11.9,84.7,11.9,84.7,11.4z M85.1,4.8c0.4,0,0.7,0.3,0.7,0.6c0,0.4-0.3,0.6-0.7,0.6c-0.4,0-0.7-0.3-0.7-0.6
		C84.5,5.1,84.8,4.8,85.1,4.8z"/>
	<path class="st0" d="M90.3,11.4c-0.4,0.4-1.1,0.9-1.9,0.9c-0.8,0-1.3-0.4-1.3-1.2c0-0.9,0.9-1.2,2.1-1.6c0.6-0.2,1-0.3,1.1-0.6V8.8
		c0-0.9-0.4-1.2-1.3-1.2c-0.2,0-0.3,0.1-0.4,0.3c-0.3,0.7-0.5,1-0.8,1c-0.2,0-0.4-0.1-0.4-0.4c0-0.8,1.5-1.3,2.5-1.3
		c1,0,1.5,0.6,1.5,1.7v2.3c0,0.3,0.4,0.4,0.8,0.2v0.3c-0.3,0.3-0.6,0.5-1,0.7C90.7,12.3,90.3,11.9,90.3,11.4z M89,11.7
		c0.5,0,1-0.3,1.3-0.7V9.6l-1.1,0.3c-0.8,0.2-1.1,0.6-1.1,1C88.1,11.4,88.5,11.7,89,11.7z"/>
	<path class="st0" d="M93.3,11.4V8.7c0-0.4-0.1-0.6-0.7-0.7V7.8c0.7-0.1,1.2-0.3,1.7-0.6l0.2,0.2l-0.3,0.9h0.2
		c0.5-0.6,1.1-1.1,1.9-1.1c1.1,0,1.4,0.8,1.4,1.7v2.4c0,0.5,0.3,0.5,0.7,0.6v0.2h-2.5V12c0.4-0.1,0.7-0.1,0.7-0.6V9
		c0-0.7-0.3-1.1-0.9-1.1c-0.3,0-0.8,0.1-1.3,0.7v2.7c0,0.5,0.3,0.5,0.7,0.6v0.2h-2.5V12C93,11.9,93.3,11.9,93.3,11.4z"/>
	<path class="st0" d="M102.1,11.1V6.4c0-0.7-0.3-0.8-0.9-0.9V5.3h3v0.2c-0.6,0.1-0.9,0.1-0.9,0.9v4.7c0,0.7,0.3,0.8,0.9,0.9v0.2h-3
		V12C101.7,11.9,102.1,11.8,102.1,11.1z"/>
	<path class="st0" d="M105.4,11.4V8.7c0-0.4-0.1-0.6-0.7-0.7V7.8c0.7-0.1,1.2-0.3,1.7-0.6l0.2,0.2l-0.3,0.9h0.2
		c0.5-0.6,1.1-1.1,1.9-1.1c1.1,0,1.4,0.8,1.4,1.7v2.4c0,0.5,0.3,0.5,0.7,0.6v0.2h-2.5V12c0.4-0.1,0.7-0.1,0.7-0.6V9
		c0-0.7-0.3-1.1-0.9-1.1c-0.3,0-0.8,0.1-1.3,0.7v2.7c0,0.5,0.3,0.5,0.7,0.6v0.2h-2.5V12C105.1,11.9,105.4,11.9,105.4,11.4z"/>
	<path class="st0" d="M111.7,11.4V7.9h-0.8V7.6c0.7-0.3,1.2-0.7,1.6-1.2h0.3v1.1l1.3-0.1c0,0.2,0,0.4,0,0.6h-1.3V11
		c0,0.4,0.2,0.6,0.5,0.6c0.3,0,0.7-0.1,0.9-0.2v0.3c-0.4,0.2-1.1,0.5-1.5,0.6C112.1,12.3,111.7,11.9,111.7,11.4z"/>
	<path class="st0" d="M114.8,9.8c0-1.5,1.1-2.5,2.5-2.5c1.6,0,2.3,1.3,2,2.3h-3.4c0.1,1.2,0.8,2.1,1.9,2.1c0.5,0,1.1-0.2,1.3-0.6
		l0.2,0.1c-0.3,0.7-1.1,1.2-2,1.2C116,12.3,114.8,11.4,114.8,9.8z M118.3,9.2c0.1-0.7-0.2-1.5-1.1-1.5c-0.7,0-1.2,0.5-1.3,1.5H118.3
		z"/>
	<path class="st0" d="M120.8,11.4V8.7c0-0.4-0.1-0.6-0.8-0.7V7.8c0.8-0.1,1.2-0.3,1.7-0.6l0.2,0.2l-0.3,1.3h0.3
		c0.4-0.9,0.9-1.5,1.6-1.5c0.2,0,0.3,0,0.5,0.1v1c-0.2-0.1-0.4-0.1-0.7-0.1c-0.9,0-1.4,0.7-1.4,1.5v1.7c0,0.5,0.3,0.5,0.8,0.6v0.2
		H120V12C120.5,11.9,120.8,11.9,120.8,11.4z"/>
	<path class="st0" d="M125.2,11.4V8.7c0-0.4-0.1-0.6-0.7-0.7V7.8c0.7-0.1,1.2-0.3,1.7-0.6l0.2,0.2L126,8.3h0.2
		c0.5-0.6,1.1-1.1,1.9-1.1c1.1,0,1.4,0.8,1.4,1.7v2.4c0,0.5,0.3,0.5,0.7,0.6v0.2h-2.5V12c0.4-0.1,0.7-0.1,0.7-0.6V9
		c0-0.7-0.3-1.1-0.9-1.1c-0.3,0-0.8,0.1-1.3,0.7v2.7c0,0.5,0.3,0.5,0.7,0.6v0.2h-2.5V12C124.9,11.9,125.2,11.9,125.2,11.4z"/>
	<path class="st0" d="M134,11.4c-0.4,0.4-1.1,0.9-1.9,0.9c-0.8,0-1.3-0.4-1.3-1.2c0-0.9,0.9-1.2,2.1-1.6c0.6-0.2,1-0.3,1.1-0.6V8.8
		c0-0.9-0.4-1.2-1.3-1.2c-0.2,0-0.3,0.1-0.4,0.3c-0.3,0.7-0.5,1-0.8,1c-0.2,0-0.4-0.1-0.4-0.4c0-0.8,1.5-1.3,2.5-1.3
		c1,0,1.5,0.6,1.5,1.7v2.3c0,0.3,0.4,0.4,0.8,0.2v0.3c-0.3,0.3-0.6,0.5-1,0.7C134.4,12.3,134,11.9,134,11.4z M132.7,11.7
		c0.5,0,1-0.3,1.3-0.7V9.6l-1.1,0.3c-0.8,0.2-1.1,0.6-1.1,1C131.9,11.4,132.2,11.7,132.7,11.7z"/>
	<path class="st0" d="M137.1,11.4V7.9h-0.8V7.6c0.7-0.3,1.2-0.7,1.6-1.2h0.3v1.1l1.3-0.1c0,0.2,0,0.4,0,0.6h-1.3V11
		c0,0.4,0.2,0.6,0.5,0.6c0.3,0,0.7-0.1,0.9-0.2v0.3c-0.4,0.2-1.1,0.5-1.5,0.6C137.6,12.3,137.1,11.9,137.1,11.4z"/>
	<path class="st0" d="M140.9,11.4V8.7c0-0.4-0.1-0.6-0.7-0.7V7.8c0.6-0.1,1.1-0.3,1.5-0.6l0.2,0.2v4c0,0.5,0.3,0.5,0.7,0.6v0.2h-2.5
		V12C140.6,11.9,140.9,11.9,140.9,11.4z M141.3,4.8c0.4,0,0.7,0.3,0.7,0.6c0,0.4-0.3,0.6-0.7,0.6c-0.4,0-0.7-0.3-0.7-0.6
		C140.7,5.1,141,4.8,141.3,4.8z"/>
	<path class="st0" d="M143.3,9.8c0-1.6,1.3-2.6,2.7-2.6c1.3,0,2.5,0.9,2.5,2.5c0,1.6-1.3,2.6-2.7,2.6
		C144.5,12.3,143.3,11.4,143.3,9.8z M146,12c0.7,0,1.4-0.6,1.4-2c0-1.3-0.6-2.3-1.5-2.3c-0.7,0-1.4,0.6-1.4,2
		C144.4,10.9,145.1,12,146,12z"/>
	<path class="st0" d="M149.8,11.4V8.7c0-0.4-0.1-0.6-0.7-0.7V7.8c0.7-0.1,1.2-0.3,1.7-0.6l0.2,0.2l-0.3,0.9h0.2
		c0.5-0.6,1.1-1.1,1.9-1.1c1.1,0,1.4,0.8,1.4,1.7v2.4c0,0.5,0.3,0.5,0.7,0.6v0.2h-2.5V12c0.4-0.1,0.7-0.1,0.7-0.6V9
		c0-0.7-0.3-1.1-0.9-1.1c-0.3,0-0.8,0.1-1.3,0.7v2.7c0,0.5,0.3,0.5,0.7,0.6v0.2h-2.5V12C149.5,11.9,149.8,11.9,149.8,11.4z"/>
	<path class="st0" d="M158.7,11.4c-0.4,0.4-1.1,0.9-1.9,0.9c-0.8,0-1.3-0.4-1.3-1.2c0-0.9,0.9-1.2,2.1-1.6c0.6-0.2,1-0.3,1.1-0.6
		V8.8c0-0.9-0.4-1.2-1.3-1.2c-0.2,0-0.3,0.1-0.4,0.3c-0.3,0.7-0.5,1-0.8,1c-0.2,0-0.4-0.1-0.4-0.4c0-0.8,1.5-1.3,2.5-1.3
		c1,0,1.5,0.6,1.5,1.7v2.3c0,0.3,0.4,0.4,0.8,0.2v0.3c-0.3,0.3-0.6,0.5-1,0.7C159,12.3,158.7,11.9,158.7,11.4z M157.3,11.7
		c0.5,0,1-0.3,1.3-0.7V9.6l-1.1,0.3c-0.8,0.2-1.1,0.6-1.1,1C156.5,11.4,156.9,11.7,157.3,11.7z"/>
	<path class="st0" d="M161.8,11.4V6.2c0-0.4-0.2-0.6-0.8-0.7V5.3c0.7-0.1,1.1-0.3,1.6-0.6l0.2,0.2v6.5c0,0.5,0.4,0.5,0.8,0.6v0.2
		H161V12C161.4,11.9,161.8,11.9,161.8,11.4z"/>
</g>
<g>
	<path class="st0" d="M82.1,25.5v-4.7c0-0.7-0.3-0.8-0.9-0.9v-0.2h3v0.2c-0.6,0.1-0.9,0.1-0.9,0.9v4.7c0,0.7,0.3,0.8,0.9,0.9v0.2h-3
		v-0.2C81.8,26.3,82.1,26.2,82.1,25.5z"/>
	<path class="st0" d="M85.4,25.8v-2.6c0-0.4-0.1-0.6-0.7-0.7v-0.2c0.7-0.1,1.2-0.3,1.7-0.6l0.2,0.2l-0.3,0.9h0.2
		c0.5-0.6,1.1-1.1,1.9-1.1c1.1,0,1.4,0.8,1.4,1.7v2.4c0,0.5,0.3,0.5,0.7,0.6v0.2H88v-0.2c0.4-0.1,0.7-0.1,0.7-0.6v-2.3
		c0-0.7-0.3-1.1-0.9-1.1c-0.3,0-0.8,0.1-1.3,0.7v2.7c0,0.5,0.3,0.5,0.7,0.6v0.2h-2.5v-0.2C85.1,26.3,85.4,26.3,85.4,25.8z"/>
	<path class="st0" d="M91.1,26.3l0-1h0.4c0.2,0.7,0.6,1.1,1.4,1.1c0.6,0,1-0.3,1-0.8c0-0.6-0.5-0.7-1.2-1c-0.7-0.3-1.5-0.7-1.5-1.5
		c0-0.8,0.7-1.4,1.8-1.4c0.8,0,1.2,0.3,1.4,0.4l0,1H94c-0.2-0.6-0.5-1.1-1.2-1.1c-0.6,0-0.8,0.3-0.8,0.7c0,0.5,0.4,0.7,1,0.9
		c0.7,0.3,1.7,0.6,1.7,1.6c0,0.9-0.8,1.5-2,1.5C91.9,26.7,91.3,26.4,91.1,26.3z"/>
	<path class="st0" d="M96.1,25.8v-3.5h-0.8V22c0.7-0.3,1.2-0.7,1.6-1.2h0.3v1.1l1.3-0.1c0,0.2,0,0.4,0,0.6h-1.3v3.1
		c0,0.4,0.2,0.6,0.5,0.6c0.3,0,0.7-0.1,0.9-0.2v0.3c-0.4,0.2-1.1,0.5-1.5,0.6C96.6,26.7,96.1,26.3,96.1,25.8z"/>
	<path class="st0" d="M99.9,25.8v-2.6c0-0.4-0.1-0.6-0.7-0.7v-0.2c0.6-0.1,1.1-0.3,1.5-0.6l0.2,0.2v4c0,0.5,0.3,0.5,0.7,0.6v0.2
		h-2.5v-0.2C99.6,26.3,99.9,26.3,99.9,25.8z M100.3,19.2c0.4,0,0.7,0.3,0.7,0.6s-0.3,0.6-0.7,0.6c-0.4,0-0.7-0.3-0.7-0.6
		S100,19.2,100.3,19.2z"/>
	<path class="st0" d="M103,25.8v-3.5h-0.8V22c0.7-0.3,1.2-0.7,1.6-1.2h0.3v1.1l1.3-0.1c0,0.2,0,0.4,0,0.6H104v3.1
		c0,0.4,0.2,0.6,0.5,0.6c0.3,0,0.7-0.1,0.9-0.2v0.3c-0.4,0.2-1.1,0.5-1.5,0.6C103.4,26.7,103,26.3,103,25.8z"/>
	<path class="st0" d="M106.6,25v-2.5c0-0.4-0.3-0.5-0.7-0.5v-0.2c0.7,0,1.2,0,1.7-0.1V25c0,0.6,0.3,1,0.9,1c0.3,0,0.8-0.1,1.3-0.6
		v-2.9c0-0.4-0.3-0.5-0.7-0.5v-0.2c0.7,0,1.2,0,1.7-0.1v3.9c0,0.4,0.1,0.6,0.7,0.7v0.2H110l0.1-0.9h-0.1c-0.5,0.5-1.1,0.9-1.9,0.9
		C106.9,26.7,106.6,25.9,106.6,25z"/>
	<path class="st0" d="M113,25.8v-3.5h-0.8V22c0.7-0.3,1.2-0.7,1.6-1.2h0.3v1.1l1.3-0.1c0,0.2,0,0.4,0,0.6H114v3.1
		c0,0.4,0.2,0.6,0.5,0.6c0.3,0,0.7-0.1,0.9-0.2v0.3c-0.4,0.2-1.1,0.5-1.5,0.6C113.4,26.7,113,26.3,113,25.8z"/>
	<path class="st0" d="M116.1,24.2c0-1.5,1.1-2.5,2.5-2.5c1.6,0,2.3,1.3,2,2.3h-3.4c0.1,1.2,0.8,2.1,1.9,2.1c0.5,0,1.1-0.2,1.3-0.6
		l0.2,0.1c-0.3,0.7-1.1,1.2-2,1.2C117.2,26.7,116.1,25.7,116.1,24.2z M119.5,23.6c0.1-0.7-0.2-1.5-1.1-1.5c-0.7,0-1.2,0.5-1.3,1.5
		H119.5z"/>
	<path class="st0" d="M123.5,25.3c0-1.8,1.6-3.6,3.2-3.6c0.7,0,1.3,0.4,1.3,1.4c0,1.8-1.6,3.6-3.2,3.6
		C124.1,26.7,123.5,26.4,123.5,25.3z M125.2,26.4c1,0,1.9-2.2,1.9-3.3c0-0.6-0.2-0.9-0.7-0.9c-1,0-1.9,2.2-1.9,3.3
		C124.5,26,124.7,26.4,125.2,26.4z"/>
	<path class="st0" d="M126.3,27.9c0-0.3,0.2-0.5,0.5-0.5c0.4,0,0.5,0.3,0.4,0.6c0,0.3,0.1,0.4,0.4,0.4c0.4,0,0.7-0.3,1.1-1.6
		l1.3-4.5l-1.1-0.1l0.1-0.3h1.2c0.6-2,1.5-3,2.6-3c0.7,0,1,0.4,1,0.7c0,0.3-0.2,0.5-0.5,0.5c-0.3,0-0.4-0.3-0.4-0.5
		c0-0.3-0.2-0.4-0.4-0.4c-0.5,0-0.7,0.3-1.1,1.6l-0.3,1h1.2l-0.2,0.4l-1.2-0.1l-1,3.5c-0.6,2-1.5,3-2.6,3
		C126.6,28.7,126.3,28.3,126.3,27.9z"/>
</g>
<g>
	<path class="st0" d="M58.7,36c0-0.4,0-1.4-0.6-1.6h3c-0.6,0.3-0.6,1.2-0.6,1.6v2.4h3V36c0-0.4,0-1.4-0.6-1.6h3
		c-0.6,0.3-0.6,1.2-0.6,1.6v5.6c0,0.4,0,1.4,0.6,1.6h-3c0.6-0.3,0.6-1.2,0.6-1.6v-2.7h-3v2.7c0,0.4,0,1.4,0.6,1.6h-3
		c0.6-0.3,0.6-1.2,0.6-1.6V36z"/>
	<path class="st0" d="M67,38.5c0-0.4,0-1.4-0.6-1.6h2.4l0,5c0,0.5,0.1,1.1,0.6,1.3h-3c0.6-0.3,0.6-1.2,0.6-1.6V38.5z M67.9,33.7
		c0.6,0,1,0.5,1,1.1s-0.5,1-1,1c-0.6,0-1.1-0.4-1.1-1S67.4,33.7,67.9,33.7z"/>
	<path class="st0" d="M70.1,41.9c0-0.7,0.5-1.3,0.8-1.6c-0.4-0.4-0.6-0.9-0.6-1.6c0-1.6,1.6-2,2.8-2c0.2,0,0.4,0,0.6,0.1h0
		c1,0.1,2.3-1.8,2.5-1.8c0.1,0,0.1,0.1,0.1,0.2c0,0.5-0.1,1.1-0.1,1.6c-0.4,0.1-1.1,0.2-1.7,0.3c0.6,0.3,1.2,0.9,1.2,1.8
		c0,1.6-1.5,2.1-2.6,2.1c-0.6,0-1.3-0.1-1.8-0.4c0,0-0.1,0-0.1,0.1c-0.9,1.2,3,0.9,4.3,1.8c1,0.7,1.2,2.6-0.3,3.4
		c-0.6,0.3-1.3,0.5-2.1,0.5c-1.1,0-2.2-0.3-2.8-0.9c-1-1,1.2-0.9,1-1.8c0.5,1.2,1.9,2.2,3,2.2c0.5,0,1-0.3,1.2-1
		C75.9,43.1,70.2,44.5,70.1,41.9z M71.9,38.7c0,0.7,0.4,2,1.2,2c0.5,0,1.1-1,1.1-2c0-0.7-0.3-1.8-1.1-1.8
		C72.4,37,71.9,37.8,71.9,38.7z"/>
	<path class="st0" d="M79.2,41.5c0,0.4,0,1.4,0.6,1.6h-3c0.6-0.3,0.6-1.2,0.6-1.6v-6.2c0-0.4,0-1.4-0.6-1.6h2.4v4.4
		c0.4-0.6,1.1-1.3,1.9-1.4c1.1-0.2,2.3,0.4,2.3,1.9v2.9c0,0.4,0,1.4,0.6,1.6h-3c0.6-0.3,0.6-1.2,0.6-1.6v-2.9c0-0.8-0.7-1-0.9-1
		c-0.1,0-0.9-0.1-1.5,0.9V41.5z"/>
	<path class="st0" d="M90.5,39.9v0.3h-4.1c0.1,2,1,2.7,2,2.7c0.8,0,1.6-0.5,1.9-1.1l0.2,0.2c-0.4,0.7-1.3,1.5-2.6,1.5
		c-1.8,0-3.4-1.1-3.4-3.6c0-2.1,1.4-3.1,3.1-3.1C89.2,36.7,90.5,37.9,90.5,39.9z M88.6,39.9c0-1.9-0.3-2.9-1-2.9s-1.2,1-1.2,2.9
		H88.6z"/>
	<path class="st0" d="M93.5,41.5c0,0.4,0,1.4,0.6,1.6h-3c0.6-0.3,0.6-1.2,0.6-1.6v-3.1c0-0.4,0-1.4-0.6-1.6h2.4v1.3
		c0.2-0.5,0.8-1.3,1.5-1.4c1.3-0.2,3.1,1.2,1.8,1.6l-1.3,0.3c0-0.8-0.6-1-0.7-1c-0.1,0-0.7-0.1-1.3,0.9V41.5z"/>
	<path class="st0" d="M103.2,34.8v3.5h1.3c0.4,0,1.3,0,1.5-0.6v1.8c-0.2-0.6-1.2-0.6-1.5-0.6h-1.3v3.8h3.5v0.5h-5.9
		c0.5-0.2,0.6-1,0.6-1.4V36c0-0.4,0-1.4-0.6-1.6h5.8v1.8c0-0.5-0.7-1.3-1.5-1.3H103.2z M105.1,42.7c0.8,0,1.5-0.7,1.5-1.3v1.3H105.1
		z"/>
	<path class="st0" d="M112.8,41.5c0,0.4,0,1.4,0.6,1.6h-3.6c-1.8,0-3.1-1.1-3.1-3.3c0-2.1,1.1-3.1,2.6-3.1c0.5,0,1.1,0.1,1.7,0.4
		v-3.5h2.4c-0.6,0.3-0.6,1.2-0.6,1.6V41.5z M111,37.4c-0.3-0.1-0.5-0.1-0.8-0.1c-1.2,0-1.6,0.9-1.6,2.6c0,2,0.6,3,1.9,3
		c0.1,0,0.3,0,0.4,0V37.4z"/>
	<path class="st0" d="M119.9,41.5c0,0.4,0,1.4,0.6,1.6h-2.4v-1.2c-0.4,0.6-1.1,1.3-1.9,1.4c-1.1,0.2-2.3-0.4-2.3-1.9v-2.9
		c0-0.4,0-1.4-0.6-1.6h3c-0.6,0.3-0.6,1.2-0.6,1.6v2.9c0,0.8,0.7,1,0.9,1c0.1,0,0.9,0.1,1.5-0.9l0-3.3c0-0.5-0.1-1.2-0.6-1.4h3
		c-0.6,0.3-0.6,1.2-0.6,1.6V41.5z"/>
	<path class="st0" d="M123.6,36.7c2-0.1,3.7,2.1,2.2,2.1h-0.8c0-0.2,0.1-1.9-1.3-1.9c-0.7,0-1.3,1-1.2,3.1c0.1,1.8,1.1,2.6,2.1,2.6
		c0.7,0,1.4-0.4,1.8-1l0.2,0.2c-0.4,0.7-1,1.5-2.6,1.5c-1.8,0-3.4-1.1-3.4-3.6C120.5,37.8,121.9,36.8,123.6,36.7z"/>
	<path class="st0" d="M130.7,42.8c-0.6,0.5-1.3,0.7-2,0.7c-1.3,0-2.3-0.8-2.1-2.1c0.2-1.5,1.5-1.8,2.8-1.8c0.5,0,1,0.1,1.4,0.1v-1
		c0-0.8-0.1-1.5-0.8-1.6c-0.6-0.1-1.1,0.4-1.1,1.8h-1.7c-1.1,0,0.9-1.9,2.5-2c1.1-0.1,2.9,0.3,2.9,1.9v2.9c0,0.4,0,1.4,0.6,1.6h-2.4
		V42.8z M130.1,39.8c-1,0-1.7,0.5-1.7,1.7c0,1.1,0.7,1.6,1.5,1.5c0.7-0.2,0.8-0.7,0.8-1.2v-1.9C130.5,39.9,130.3,39.8,130.1,39.8z"
		/>
	<path class="st0" d="M134.2,37.1h-1.1v-0.3c0.6,0,2.6-0.8,2.6-1.8h0.2v1.8h1.5v0.3H136v4.3c0,0.8,0.3,1.1,0.6,1.1
		c0.4,0,0.9-0.4,1.3-1v0.4c-0.5,0.8-1,1.5-2,1.5c-0.9,0-1.7-0.7-1.7-2V37.1z"/>
	<path class="st0" d="M138.5,38.5c0-0.4,0-1.4-0.6-1.6h2.4l0,5c0,0.5,0.1,1.1,0.6,1.3h-3c0.6-0.3,0.6-1.2,0.6-1.6V38.5z M139.4,33.7
		c0.6,0,1,0.5,1,1.1s-0.5,1-1,1c-0.6,0-1.1-0.4-1.1-1S138.8,33.7,139.4,33.7z"/>
	<path class="st0" d="M143.9,36.7c1.7,0,3.1,1.2,3.1,3.3c0,2.3-1.3,3.4-3.1,3.4c-1.8,0-3.1-1.1-3.1-3.6
		C140.8,37.8,142.3,36.7,143.9,36.7z M143.9,43.2c0.7,0,1.2-1,1.2-3.1s-0.5-3.1-1.2-3.1s-1.2,1-1.2,3.1S143.2,43.2,143.9,43.2z"/>
	<path class="st0" d="M147.6,38.5c0-0.4,0-1.4-0.6-1.6h2.4v1.2c0.4-0.6,1.1-1.2,1.9-1.4c1.1-0.2,2.3,0.4,2.3,1.9v2.9
		c0,0.4,0,1.4,0.6,1.6h-3c0.6-0.3,0.6-1.2,0.6-1.6v-2.9c0-0.8-0.7-1-0.9-1c-0.1,0-0.9-0.1-1.5,0.9l0,3.4c0,0.5,0.1,1.1,0.6,1.3h-3
		c0.6-0.3,0.6-1.2,0.6-1.6V38.5z"/>
</g>
<g>
	<path class="st0" d="M21.9,52.8C17.1,50,5.7,42.5,3.7,32.4C1.7,21.7,1.5,9.8,1.5,5.2l0-0.5L2,4.5c2.8-1,9.3-2.7,20.5-2.7
		c11,0,17.4,1.7,20.2,2.7l0.5,0.2l0,0.5c0,4.6-0.2,16.5-2.2,27.3C38.9,42.5,27.5,50,22.7,52.8L22.3,53L21.9,52.8z"/>
	<path class="st1" d="M22.4,2.5c10.9,0,17.1,1.6,19.9,2.6c0,4.9-0.2,16.6-2.2,27.1c-1.9,9.9-13.4,17.3-17.9,19.9
		c-4.5-2.6-16-10-17.9-19.9c-2-10.6-2.2-22.2-2.2-27.1C5,4.2,11.4,2.5,22.4,2.5 M22.4,1.1L22.4,1.1C11.1,1.1,4.6,2.8,1.7,3.8l-1,0.3
		l0,1c0,4.6,0.2,16.6,2.2,27.4c2,10.4,13.6,18,18.6,20.9l0.7,0.4l0.7-0.4c4.9-2.8,16.6-10.5,18.6-20.9c2.1-10.8,2.3-22.8,2.2-27.4
		l0-1l-1-0.3C40,2.8,33.6,1.1,22.4,1.1L22.4,1.1z"/>
	<polygon class="st2" points="10.3,9 12.6,9.3 11,10.9 11.3,13.2 9.3,12.1 7.3,13.2 7.7,10.9 6,9.3 8.3,9 9.3,7 	"/>
	<polygon class="st2" points="23.2,11.3 25.5,11.6 23.9,13.2 24.3,15.5 22.2,14.4 20.2,15.5 20.6,13.2 19,11.6 21.2,11.3 22.2,9.2 	
		"/>
	<polygon class="st2" points="36.2,8.5 38.4,8.8 36.8,10.4 37.2,12.7 35.2,11.6 33.1,12.7 33.5,10.4 31.9,8.8 34.1,8.5 35.2,6.4 	
		"/>
	<polygon class="st2" points="34.2,28.7 36.5,29 34.8,30.6 35.2,32.8 33.2,31.8 31.2,32.8 31.5,30.6 29.9,29 32.2,28.7 33.2,26.6 	
		"/>
	<polygon class="st2" points="23.5,24.9 25.7,25.3 24.1,26.9 24.5,29.1 22.5,28 20.4,29.1 20.8,26.9 19.2,25.3 21.5,24.9 22.5,22.9 
			"/>
	<polygon class="st2" points="14.5,19 15.8,19.2 14.8,20.1 15.1,21.4 13.9,20.8 12.8,21.4 13,20.1 12.1,19.2 13.3,19 13.9,17.9 	"/>
	<polygon class="st2" points="30.4,18.6 31.7,18.8 30.8,19.7 31,21 29.8,20.4 28.7,21 28.9,19.7 28,18.8 29.3,18.6 29.8,17.5 	"/>
	<polygon class="st2" points="12.8,29 15,29.3 13.4,30.9 13.8,33.2 11.8,32.1 9.7,33.2 10.1,31 8.5,29.4 10.7,29 11.8,27 	"/>
	<path class="st2" d="M27.2,47.2L27,47l-0.2,0.3c-0.6,0.7-1.3,1.1-1.9,1.1c-0.7,0-1.4-0.4-2.1-1.1L22.4,47l-0.3,0.2
		c-1.5,1.5-3,1.5-4.7,0L17.3,47l-0.2,0.2c-0.4,0.3-0.8,0.5-1.1,0.7c0.2,0.2,0.4,0.3,0.6,0.5c0.2-0.1,0.5-0.3,0.7-0.5
		c1.8,1.5,3.5,1.5,5.2,0c0.8,0.7,1.6,1.1,2.4,1.1c0.8,0,1.5-0.4,2.2-1.1c0.3,0.2,0.5,0.4,0.8,0.6c0.2-0.2,0.4-0.3,0.6-0.5
		C28.1,47.9,27.7,47.6,27.2,47.2"/>
	<path class="st2" d="M30.5,43.8l-0.3-0.3L30,43.8c-0.6,0.7-1.3,1.1-1.9,1.1c-0.7,0-1.4-0.4-2.1-1.1l-0.3-0.3l-0.3,0.2
		c-1.5,1.5-3,1.5-4.7,0l-0.2-0.2l-0.2,0.2c-1.9,1.5-3.5,1.5-4.9,0l-0.2-0.3l-0.3,0.3c-0.8,0.8-1.5,1.1-2.2,1.1c-0.1,0-0.3,0-0.4-0.1
		c0.3,0.3,0.5,0.5,0.8,0.8c0.7-0.1,1.3-0.4,2-1c1.8,1.8,3.9,1,5.4,0c1.8,1.5,3.5,1.5,5.2,0c0.8,0.7,1.6,1.1,2.4,1.1
		c0.8,0,1.5-0.4,2.2-1.1c0.5,0.4,1,0.7,1.4,0.9c0.2-0.2,0.4-0.4,0.6-0.6C31.7,44.7,31.1,44.4,30.5,43.8"/>
	<path class="st2" d="M32.8,40.1l-0.3-0.3l-0.2,0.3c-0.6,0.7-1.3,1.1-1.9,1.1c-0.7,0-1.4-0.4-2.1-1.1L28,39.9l-0.3,0.2
		c-1.5,1.5-3,1.5-4.7,0l-0.2-0.2l-0.2,0.2c-1.9,1.5-3.5,1.5-4.9,0l-0.2-0.3l-0.3,0.3c-0.8,0.8-1.5,1.1-2.2,1.1c-0.7,0-1.3-0.4-2-1.1
		l-0.2-0.2l-0.3,0.2c-1.6,1.4-3,1.5-4.3,0.2c0.4,0.5,0.8,1,1.2,1.5c1,0.3,2.2-0.1,3.3-1c0.7,0.7,1.5,1.1,2.3,1.1
		c0.8,0,1.6-0.3,2.4-1.1c1.8,1.8,3.9,1,5.4,0c1.8,1.5,3.5,1.5,5.2,0c0.8,0.7,1.6,1.1,2.4,1.1c0.8,0,1.5-0.4,2.2-1.1
		c0.9,0.7,1.7,1.1,2.6,1.1c0.2-0.3,0.5-0.5,0.7-0.8C34.8,41.4,33.8,41.1,32.8,40.1"/>
	<path class="st2" d="M35.2,36.8l-0.3-0.3l-0.3,0.3c-1.5,1.5-2.9,1.5-4.5,0l-0.3-0.3l-0.2,0.3c-0.6,0.7-1.3,1.1-1.9,1.1
		c-0.7,0-1.4-0.4-2.1-1.1l-0.3-0.3L25,36.8c-1.5,1.5-3,1.5-4.7,0l-0.2-0.2l-0.2,0.2c-1.9,1.5-3.5,1.5-4.9,0l-0.2-0.3l-0.3,0.3
		c-0.8,0.8-1.5,1.1-2.2,1.1c-0.7,0-1.3-0.4-2-1.1l-0.2-0.2l-0.3,0.2c-1.3,1.1-2.4,1.4-3.4,0.9C6.6,38,6.8,38.3,7,38.6
		c1,0.2,2-0.2,3.1-1c0.7,0.7,1.5,1.1,2.3,1.1c0.8,0,1.6-0.3,2.4-1.1c1.8,1.8,3.9,1,5.4,0c1.8,1.5,3.5,1.5,5.2,0
		c0.8,0.7,1.6,1.1,2.4,1.1c0.8,0,1.5-0.4,2.2-1.1c1.7,1.4,3.4,1.4,5,0c0.6,0.7,1.3,1,2,1.1c0,0,0.1,0,0.1,0c0.2,0,0.4,0,0.6-0.1
		c0.2-0.3,0.4-0.7,0.6-1c-0.5,0.3-0.9,0.4-1.3,0.4C36.3,37.9,35.7,37.5,35.2,36.8"/>
</g>
</svg>
